<?xml version="1.0" encoding="UTF-8" standalone="no"?>
<!-- Created with Inkscape (http://www.inkscape.org/) -->
<svg xmlns:rdf="http://www.w3.org/1999/02/22-rdf-syntax-ns#" xmlns="http://www.w3.org/2000/svg" version="1.1" xmlns:cc="http://creativecommons.org/ns#" xmlns:dc="http://purl.org/dc/elements/1.1/" viewBox="0 0 200 200">
 <metadata>
  <rdf:RDF>
   <cc:Work rdf:about="">
    <dc:format>image/svg+xml</dc:format>
    <dc:type rdf:resource="http://purl.org/dc/dcmitype/StillImage"/>
    <dc:title/>
   </cc:Work>
  </rdf:RDF>
 </metadata>
 <g transform="translate(0,-852.36218)">
  <path fill="#000" d="m26.77,1026c33.92,33.92,88.91,33.92,122.8,0,33.92-33.92,33.92-88.91,0-122.8-7.341-7.341-15.66-13.09-24.55-17.25v30.22c2.151,1.64,4.213,3.435,6.179,5.401,23.77,23.77,23.77,62.31,0,86.09-23.77,23.77-62.31,23.77-86.09,0-23.77-23.77-23.77-62.31,0-86.09,1.966-1.966,4.028-3.76,6.179-5.401v-30.22c-8.887,4.164-17.21,9.909-24.55,17.25-33.92,33.92-33.92,88.91,0,122.8zm47.7-75.88,27.42-0.015,0-96.23-27.42-0.015,0,96.26z"/>
 </g>
</svg>
