<?xml version="1.0" encoding="utf-8"?>
<!-- Generator: Adobe Illustrator 19.2.1, SVG Export Plug-In . SVG Version: 6.00 Build 0)  -->
<svg version="1.1" id="Layer_1" xmlns="http://www.w3.org/2000/svg" xmlns:xlink="http://www.w3.org/1999/xlink" x="0px" y="0px"
	 viewBox="0 0 300 300" style="enable-background:new 0 0 300 300;" xml:space="preserve">
<style type="text/css">
	.st0{clip-path:url(#SVGID_2_);fill:#F49700;}
	.st1{clip-path:url(#SVGID_4_);fill:#FFFFFF;}
	.st2{clip-path:url(#SVGID_4_);fill:none;stroke:#FFFFFF;stroke-width:6.215;}
	.st3{clip-path:url(#SVGID_6_);fill:none;stroke:#000000;stroke-width:6.068;stroke-linecap:round;stroke-linejoin:round;}
	.st4{clip-path:url(#SVGID_6_);fill:#F49700;}
	.st5{clip-path:url(#SVGID_6_);}
	.st6{fill:none;stroke:#FFFFFF;stroke-width:6.068;stroke-linecap:round;stroke-linejoin:round;}
</style>
<g>
	<defs>
		<rect id="SVGID_1_" width="300" height="300"/>
	</defs>
	<clipPath id="SVGID_2_">
		<use xlink:href="#SVGID_1_"  style="overflow:visible;"/>
	</clipPath>
	<path class="st0" d="M150,300c82.8,0,150-67.2,150-150S232.8,0,150,0S0,67.2,0,150S67.2,300,150,300"/>
	<path class="st0" d="M81.6,227.5h136.8c0-38.7-30.6-70-68.4-70C112.2,157.5,81.6,188.8,81.6,227.5"/>
</g>
<g>
	<defs>
		<path id="SVGID_3_" d="M81.6,227.5h136.8c0-38.7-30.6-70-68.4-70C112.2,157.5,81.6,188.8,81.6,227.5"/>
	</defs>
	<clipPath id="SVGID_4_">
		<use xlink:href="#SVGID_3_"  style="overflow:visible;"/>
	</clipPath>
	<polygon class="st1" points="150.5,175.7 137.9,153.4 163.2,153.4 	"/>
	<polygon class="st2" points="150.5,175.7 137.9,153.4 163.2,153.4 	"/>
	<polygon class="st1" points="150.5,175.9 137.9,227.5 163.2,227.5 	"/>
	<polygon class="st2" points="150.5,175.9 137.9,227.5 163.2,227.5 	"/>
</g>
<g>
	<defs>
		<rect id="SVGID_5_" width="300" height="300"/>
	</defs>
	<clipPath id="SVGID_6_">
		<use xlink:href="#SVGID_5_"  style="overflow:visible;"/>
	</clipPath>
	<path class="st3" d="M81.6,227.5h136.8c0-38.7-30.6-70-68.4-70C112.2,157.5,81.6,188.8,81.6,227.5z"/>
	<path class="st4" d="M150,156c23.8,0,43.1-19.8,43.1-44.2S173.8,67.7,150,67.7s-43.1,19.8-43.1,44.2S126.2,156,150,156"/>
	<ellipse class="st3" cx="150" cy="111.9" rx="43.1" ry="44.2"/>
	<path class="st5" d="M210.2,204.3c15.2,0,27.4-12.3,27.4-27.4s-12.3-27.4-27.4-27.4c-15.2,0-27.4,12.3-27.4,27.4
		S195.1,204.3,210.2,204.3"/>
</g>
<line class="st6" x1="210.2" y1="162.8" x2="210.2" y2="191"/>
<line class="st6" x1="196.1" y1="176.9" x2="224.3" y2="176.9"/>
</svg>
