<?xml version="1.0" encoding="utf-8"?>
<!-- Generator: Adobe Illustrator 19.2.1, SVG Export Plug-In . SVG Version: 6.00 Build 0)  -->
<svg version="1.1" id="Layer_1" xmlns="http://www.w3.org/2000/svg" xmlns:xlink="http://www.w3.org/1999/xlink" x="0px" y="0px"
	 viewBox="0 0 300 300" style="enable-background:new 0 0 300 300;" xml:space="preserve">
<style type="text/css">
	.st0{clip-path:url(#SVGID_2_);fill:#F19200;}
	.st1{fill:none;stroke:#1B1C20;stroke-width:6.068;}
	.st2{clip-path:url(#SVGID_4_);fill:none;stroke:#1B1C20;stroke-width:6.068;}
	.st3{clip-path:url(#SVGID_4_);fill:#F19200;}
	.st4{clip-path:url(#SVGID_4_);fill:#FFFFFF;}
</style>
<g>
	<defs>
		<rect id="SVGID_1_" width="300" height="300"/>
	</defs>
	<clipPath id="SVGID_2_">
		<use xlink:href="#SVGID_1_"  style="overflow:visible;"/>
	</clipPath>
	<path class="st0" d="M150,300c82.8,0,150-67.2,150-150S232.8,0,150,0S0,67.2,0,150S67.2,300,150,300"/>
</g>
<rect x="129.2" y="218.3" class="st1" width="41.7" height="23.8"/>
<g>
	<defs>
		<rect id="SVGID_3_" width="300" height="300"/>
	</defs>
	<clipPath id="SVGID_4_">
		<use xlink:href="#SVGID_3_"  style="overflow:visible;"/>
	</clipPath>
	<path class="st2" d="M66.3,65.8c0,0-8.6,0-8.6,8.6v135c0,0,0,8.6,8.6,8.6h167.5c0,0,8.6,0,8.6-8.6v-135c0,0,0-8.6-8.6-8.6H66.3z"/>
	<path class="st3" d="M123.3,233.3c0,0-4,0-4,4v3.5c0,0,0,4,4,4h53.3c0,0,4,0,4-4v-3.5c0,0,0-4-4-4H123.3z"/>
	<path class="st2" d="M123.3,233.3c0,0-4,0-4,4v3.5c0,0,0,4,4,4h53.3c0,0,4,0,4-4v-3.5c0,0,0-4-4-4H123.3z"/>
	<path class="st4" d="M77.5,79.7c0,0-8.6,0-8.6,8.6v98c0,0,0,8.6,8.6,8.6h143.7c0,0,8.6,0,8.6-8.6v-98c0,0,0-8.6-8.6-8.6H77.5z"/>
	<path class="st4" d="M148.4,210.2c3.3,0,5.9-2.6,5.9-5.8c0-3.2-2.6-5.8-5.9-5.8c-3.3,0-5.9,2.6-5.9,5.8
		C142.5,207.6,145.1,210.2,148.4,210.2"/>
</g>
</svg>
