<?xml version="1.0" encoding="utf-8"?>
<!-- Generator: Adobe Illustrator 19.2.1, SVG Export Plug-In . SVG Version: 6.00 Build 0)  -->
<svg version="1.1" id="Layer_1" xmlns="http://www.w3.org/2000/svg" xmlns:xlink="http://www.w3.org/1999/xlink" x="0px" y="0px"
	 viewBox="0 0 300 300" style="enable-background:new 0 0 300 300;" xml:space="preserve">
<style type="text/css">
	.st0{clip-path:url(#SVGID_2_);fill:#F19200;}
	.st1{fill:#FFFFFF;}
	.st2{fill:#E87E04;}
	.st3{fill:none;stroke:#1B1C20;stroke-width:6.068;}
</style>
<g>
	<defs>
		<rect id="SVGID_1_" width="300" height="300"/>
	</defs>
	<clipPath id="SVGID_2_">
		<use xlink:href="#SVGID_1_"  style="overflow:visible;"/>
	</clipPath>
	<path class="st0" d="M150,300c82.8,0,150-67.2,150-150S232.8,0,150,0S0,67.2,0,150S67.2,300,150,300"/>
</g>
<rect x="156.3" y="174.6" class="st1" width="15.2" height="52.9"/>
<polygon class="st2" points="67.5,227.5 45.5,227.5 257.9,227.5 "/>
<polyline class="st3" points="45.5,227.5 67.5,227.5 257.9,227.5 "/>
<polygon class="st2" points="87.1,228.3 87.1,210.8 87.1,59.6 "/>
<polyline class="st3" points="87.1,228.3 87.1,210.8 87.1,59.6 "/>
<polyline class="st3" points="86.5,62.7 163.8,62.7 163.8,110.9 215.4,110.9 215.4,227.5 "/>
<rect x="106.1" y="82.7" class="st1" width="15.2" height="35.6"/>
<rect x="106.1" y="128.6" class="st1" width="15.2" height="35.6"/>
<rect x="156.3" y="128.6" class="st1" width="15.2" height="35.6"/>
<rect x="106.1" y="174.6" class="st1" width="15.2" height="35.6"/>
<rect x="131.2" y="82.7" class="st1" width="15.2" height="35.6"/>
<rect x="131.2" y="128.6" class="st1" width="15.2" height="35.6"/>
<rect x="181.3" y="128.6" class="st1" width="15.2" height="35.6"/>
<rect x="131.2" y="174.6" class="st1" width="15.2" height="35.6"/>
<rect x="181.3" y="174.6" class="st1" width="15.2" height="35.6"/>
</svg>
