<?xml version="1.0" encoding="utf-8"?>
<!-- Generator: Adobe Illustrator 19.2.1, SVG Export Plug-In . SVG Version: 6.00 Build 0)  -->
<svg version="1.1" id="Layer_1" xmlns="http://www.w3.org/2000/svg" xmlns:xlink="http://www.w3.org/1999/xlink" x="0px" y="0px"
	 viewBox="0 0 300 300" style="enable-background:new 0 0 300 300;" xml:space="preserve">
<style type="text/css">
	.st0{clip-path:url(#SVGID_2_);fill:#F19200;}
	.st1{clip-path:url(#SVGID_4_);fill:#FFFFFF;}
	.st2{clip-path:url(#SVGID_4_);fill:none;stroke:#FFFFFF;stroke-width:6.215;}
	.st3{clip-path:url(#SVGID_6_);fill:none;stroke:#1B1C20;stroke-width:6.068;stroke-linecap:round;stroke-linejoin:round;}
	.st4{clip-path:url(#SVGID_6_);fill:#F19200;}
	.st5{clip-path:url(#SVGID_8_);fill:#FFFFFF;}
	.st6{clip-path:url(#SVGID_8_);fill:none;stroke:#FFFFFF;stroke-width:6.215;}
	.st7{clip-path:url(#SVGID_10_);fill:none;stroke:#1B1C20;stroke-width:6.068;stroke-linecap:round;stroke-linejoin:round;}
	.st8{clip-path:url(#SVGID_10_);fill:#F19200;}
	.st9{clip-path:url(#SVGID_12_);fill:#FFFFFF;}
	.st10{clip-path:url(#SVGID_12_);fill:none;stroke:#FFFFFF;stroke-width:6.215;}
	.st11{clip-path:url(#SVGID_14_);fill:none;stroke:#1B1C20;stroke-width:6.068;stroke-linecap:round;stroke-linejoin:round;}
	.st12{clip-path:url(#SVGID_14_);fill:#F19200;}
</style>
<g>
	<defs>
		<rect id="SVGID_1_" width="300" height="300"/>
	</defs>
	<clipPath id="SVGID_2_">
		<use xlink:href="#SVGID_1_"  style="overflow:visible;"/>
	</clipPath>
	<path class="st0" d="M150,300c82.8,0,150-67.2,150-150S232.8,0,150,0S0,67.2,0,150S67.2,300,150,300"/>
	<path class="st0" d="M36.5,225.5h136.8c0-38.7-30.6-70-68.4-70C67.1,155.4,36.5,186.8,36.5,225.5"/>
</g>
<g>
	<defs>
		<path id="SVGID_3_" d="M36.5,225.5h136.8c0-38.7-30.6-70-68.4-70S36.5,186.8,36.5,225.5"/>
	</defs>
	<clipPath id="SVGID_4_">
		<use xlink:href="#SVGID_3_"  style="overflow:visible;"/>
	</clipPath>
	<polygon class="st1" points="104,173.1 91.4,150.7 116.6,150.7 	"/>
	<polygon class="st2" points="104,173.1 91.4,150.7 116.6,150.7 	"/>
	<polygon class="st1" points="104,173.3 91.4,224.8 116.6,224.8 	"/>
	<polygon class="st2" points="104,173.3 91.4,224.8 116.6,224.8 	"/>
</g>
<g>
	<defs>
		<rect id="SVGID_5_" width="300" height="300"/>
	</defs>
	<clipPath id="SVGID_6_">
		<use xlink:href="#SVGID_5_"  style="overflow:visible;"/>
	</clipPath>
	<path class="st3" d="M36.5,225.5h136.8c0-38.7-30.6-70-68.4-70C67.1,155.4,36.5,186.8,36.5,225.5z"/>
	<ellipse class="st3" cx="104.9" cy="109.8" rx="43.1" ry="44.2"/>
	<path class="st4" d="M126.7,225.5h136.8c0-38.7-30.6-70-68.4-70S126.7,186.8,126.7,225.5"/>
</g>
<g>
	<defs>
		<path id="SVGID_7_" d="M126.7,225.5h136.8c0-38.7-30.6-70-68.4-70S126.7,186.8,126.7,225.5"/>
	</defs>
	<clipPath id="SVGID_8_">
		<use xlink:href="#SVGID_7_"  style="overflow:visible;"/>
	</clipPath>
	<polygon class="st5" points="197.1,173.1 184.5,150.7 209.7,150.7 	"/>
	<polygon class="st6" points="197.1,173.1 184.5,150.7 209.7,150.7 	"/>
	<polygon class="st5" points="197.1,173.3 184.5,224.8 209.7,224.8 	"/>
	<polygon class="st6" points="197.1,173.3 184.5,224.8 209.7,224.8 	"/>
</g>
<g>
	<defs>
		<rect id="SVGID_9_" width="300" height="300"/>
	</defs>
	<clipPath id="SVGID_10_">
		<use xlink:href="#SVGID_9_"  style="overflow:visible;"/>
	</clipPath>
	<path class="st7" d="M126.7,225.5h136.8c0-38.7-30.6-70-68.4-70S126.7,186.8,126.7,225.5z"/>
	<path class="st8" d="M195.1,154c23.8,0,43.1-19.8,43.1-44.2s-19.3-44.2-43.1-44.2S152,85.5,152,109.8S171.3,154,195.1,154"/>
	<ellipse class="st7" cx="195.1" cy="109.8" rx="43.1" ry="44.2"/>
	<path class="st8" d="M81.6,244.9h136.8c0-38.7-30.6-70-68.4-70C112.2,174.8,81.6,206.2,81.6,244.9"/>
</g>
<g>
	<defs>
		<path id="SVGID_11_" d="M81.6,244.9h136.8c0-38.7-30.6-70-68.4-70C112.2,174.8,81.6,206.2,81.6,244.9"/>
	</defs>
	<clipPath id="SVGID_12_">
		<use xlink:href="#SVGID_11_"  style="overflow:visible;"/>
	</clipPath>
	<polygon class="st9" points="150.5,193.1 137.9,170.7 163.2,170.7 	"/>
	<polygon class="st10" points="150.5,193.1 137.9,170.7 163.2,170.7 	"/>
	<polygon class="st9" points="150.5,193.3 137.9,244.9 163.2,244.9 	"/>
	<polygon class="st10" points="150.5,193.3 137.9,244.9 163.2,244.9 	"/>
</g>
<g>
	<defs>
		<rect id="SVGID_13_" width="300" height="300"/>
	</defs>
	<clipPath id="SVGID_14_">
		<use xlink:href="#SVGID_13_"  style="overflow:visible;"/>
	</clipPath>
	<path class="st11" d="M81.6,244.9h136.8c0-38.7-30.6-70-68.4-70C112.2,174.8,81.6,206.2,81.6,244.9z"/>
	<path class="st12" d="M150,173.4c23.8,0,43.1-19.8,43.1-44.2S173.8,85.1,150,85.1s-43.1,19.8-43.1,44.2S126.2,173.4,150,173.4"/>
	<ellipse class="st11" cx="150" cy="129.2" rx="43.1" ry="44.2"/>
</g>
</svg>
