<?xml version="1.0" encoding="utf-8"?>
<!-- Generator: Adobe Illustrator 19.2.1, SVG Export Plug-In . SVG Version: 6.00 Build 0)  -->
<svg version="1.1" id="Layer_1" xmlns="http://www.w3.org/2000/svg" xmlns:xlink="http://www.w3.org/1999/xlink" x="0px" y="0px"
	 viewBox="0 0 300 300" style="enable-background:new 0 0 300 300;" xml:space="preserve">
<style type="text/css">
	.st0{clip-path:url(#SVGID_2_);fill:#F19200;}
	.st1{fill:#F19200;}
	.st2{fill:none;stroke:#1B1C20;stroke-width:6.068;}
	.st3{clip-path:url(#SVGID_4_);fill:#F19200;}
	.st4{clip-path:url(#SVGID_4_);fill:none;stroke:#1B1C20;stroke-width:6.068;stroke-linecap:round;stroke-linejoin:round;}
	.st5{clip-path:url(#SVGID_6_);fill:#FFFFFF;}
	.st6{clip-path:url(#SVGID_6_);fill:none;stroke:#FFFFFF;stroke-width:4.551;stroke-linecap:round;stroke-linejoin:round;}
	.st7{clip-path:url(#SVGID_8_);fill:none;stroke:#1B1C20;stroke-width:6.068;stroke-linecap:round;stroke-linejoin:round;}
</style>
<g>
	<defs>
		<rect id="SVGID_1_" width="300" height="300"/>
	</defs>
	<clipPath id="SVGID_2_">
		<use xlink:href="#SVGID_1_"  style="overflow:visible;"/>
	</clipPath>
	<path class="st0" d="M150,300c82.8,0,150-67.2,150-150S232.8,0,150,0S0,67.2,0,150S67.2,300,150,300"/>
</g>
<rect x="164.3" y="96.8" transform="matrix(0.7071 -0.7071 0.7071 0.7071 -74.1094 176.6646)" class="st1" width="23.9" height="162"/>
<rect x="164.3" y="96.8" transform="matrix(0.7071 -0.7071 0.7071 0.7071 -74.1094 176.6646)" class="st2" width="23.9" height="162"/>
<line class="st2" x1="173" y1="174.6" x2="226.8" y2="228.4"/>
<g>
	<defs>
		<rect id="SVGID_3_" width="300" height="300"/>
	</defs>
	<clipPath id="SVGID_4_">
		<use xlink:href="#SVGID_3_"  style="overflow:visible;"/>
	</clipPath>
	<path class="st3" d="M143.8,220c41.9,0,75.9-34.8,75.9-77.7s-34-77.7-75.9-77.7S68,99.3,68,142.2S101.9,220,143.8,220"/>
	<ellipse class="st4" cx="143.8" cy="142.2" rx="75.9" ry="77.7"/>
	<path class="st3" d="M143.8,211c37.1,0,67.3-30.8,67.3-68.8S181,73.5,143.8,73.5s-67.3,30.8-67.3,68.8S106.7,211,143.8,211"/>
</g>
<g>
	<defs>
		<path id="SVGID_5_" d="M76.6,142.2c0,38,30.1,68.8,67.3,68.8c37.1,0,67.3-30.8,67.3-68.8S181,73.5,143.8,73.5
			C106.7,73.5,76.6,104.3,76.6,142.2"/>
	</defs>
	<clipPath id="SVGID_6_">
		<use xlink:href="#SVGID_5_"  style="overflow:visible;"/>
	</clipPath>
	<path class="st5" d="M92.9,213.9h102.6c0-29-23-52.5-51.3-52.5S92.9,184.9,92.9,213.9"/>
	<path class="st6" d="M92.9,213.9h102.6c0-29-23-52.5-51.3-52.5S92.9,184.9,92.9,213.9z"/>
	<path class="st5" d="M144.2,160.3c17.8,0,32.3-14.8,32.3-33.1S162,94.1,144.2,94.1s-32.3,14.8-32.3,33.1S126.3,160.3,144.2,160.3"
		/>
	<ellipse class="st6" cx="144.2" cy="127.2" rx="32.3" ry="33.1"/>
</g>
<g>
	<defs>
		<rect id="SVGID_7_" width="300" height="300"/>
	</defs>
	<clipPath id="SVGID_8_">
		<use xlink:href="#SVGID_7_"  style="overflow:visible;"/>
	</clipPath>
	<ellipse class="st7" cx="143.8" cy="142.2" rx="67.3" ry="68.8"/>
</g>
</svg>
